<?xml version="1.0" standalone="no"?>
<!DOCTYPE svg PUBLIC "-//W3C//DTD SVG 20010904//EN"
 "http://www.w3.org/TR/2001/REC-SVG-20010904/DTD/svg10.dtd">
<svg version="1.0" xmlns="http://www.w3.org/2000/svg"
 width="218.000000pt" height="218.000000pt" viewBox="0 0 218.000000 218.000000"
 preserveAspectRatio="xMidYMid meet">
<metadata>
Created by potrace 1.11, written by Peter Selinger 2001-2013
</metadata>
<g transform="translate(0.000000,218.000000) scale(0.100000,-0.100000)"
fill="#000000" stroke="none">
<path d="M969 2156 c-2 -2 -25 -6 -50 -9 -276 -33 -567 -216 -732 -461 -41
-60 -119 -200 -116 -208 0 -3 -5 -21 -21 -68 -13 -38 -29 -103 -38 -152 -9
-56 -9 -279 0 -343 32 -216 156 -447 324 -605 89 -82 96 -88 185 -142 169
-103 341 -151 549 -154 124 -2 159 1 309 32 45 9 183 66 244 101 275 155 449
384 533 703 18 69 26 324 12 407 -24 146 -108 345 -193 458 -57 76 -166 186
-219 222 -23 15 -43 30 -46 33 -16 18 -123 75 -193 105 -142 58 -235 77 -398
81 -80 3 -147 2 -150 0z"/>
</g>
</svg>
